<?xml version="1.0" standalone="no"?>
<!DOCTYPE svg PUBLIC "-//W3C//DTD SVG 20010904//EN"
 "http://www.w3.org/TR/2001/REC-SVG-20010904/DTD/svg10.dtd">
<svg version="1.0" xmlns="http://www.w3.org/2000/svg"
 width="1097.000000pt" height="1097.000000pt" viewBox="0 0 1097.000000 1097.000000"
 preserveAspectRatio="xMidYMid meet">

<g transform="translate(0.000000,1097.000000) scale(0.100000,-0.100000)"
fill="#000000" stroke="none">
<path d="M6542 7935 c-13 -50 -31 -63 -65 -48 -32 13 -91 2 -95 -19 -2 -12 5
-17 25 -20 20 -2 29 -9 31 -25 3 -21 -1 -23 -44 -23 -26 0 -75 -5 -109 -11
-54 -10 -66 -10 -86 5 -31 22 -51 20 -139 -9 -41 -13 -89 -25 -107 -25 -41 0
-61 -31 -43 -66 18 -33 6 -57 -26 -51 -14 2 -42 1 -61 -3 -20 -5 -46 -4 -59 1
-33 12 -32 47 1 55 25 6 35 37 15 49 -10 6 -50 -29 -50 -45 0 -5 -8 -10 -17
-10 -14 0 -110 -41 -165 -71 -10 -5 -30 -9 -46 -9 -18 0 -60 -21 -113 -56 -81
-54 -86 -56 -154 -57 -40 0 -84 5 -102 13 -30 13 -34 12 -57 -9 -14 -13 -26
-33 -28 -45 -2 -17 -9 -21 -38 -20 -19 1 -44 5 -56 8 -13 5 -28 1 -45 -13 -21
-18 -23 -22 -11 -42 27 -43 -23 -54 -129 -29 -51 12 -60 12 -83 -3 -21 -14
-26 -25 -26 -61 0 -35 5 -47 25 -60 39 -26 22 -49 -29 -40 -22 3 -50 13 -61
20 -19 13 -24 11 -50 -16 -34 -35 -66 -38 -113 -10 -36 22 -86 26 -127 10 -22
-8 -34 -6 -60 10 -42 26 -99 26 -125 0 -60 -60 23 -95 117 -49 47 23 101 22
129 -2 13 -10 11 -16 -12 -41 -15 -15 -33 -28 -40 -28 -7 0 -27 -12 -44 -26
-26 -23 -35 -25 -55 -16 -19 9 -28 8 -40 -4 -8 -9 -13 -20 -9 -25 9 -16 -6
-46 -29 -56 -24 -11 -67 9 -67 31 0 6 -7 24 -15 40 -14 26 -13 30 10 58 31 36
32 58 4 58 -30 0 -79 -38 -79 -60 0 -24 -17 -28 -142 -34 -96 -5 -121 -12
-166 -47 -20 -16 -26 -16 -56 -4 -25 11 -42 12 -70 4 -38 -11 -65 -44 -48 -61
20 -20 78 -26 112 -12 37 16 55 8 66 -29 3 -12 15 -32 27 -44 31 -35 11 -49
-71 -48 -59 1 -76 5 -109 28 -21 15 -49 27 -61 27 -18 0 -22 -6 -22 -33 0 -18
7 -43 16 -56 15 -21 15 -24 1 -39 -21 -20 -77 -5 -93 26 -6 12 -14 25 -17 28
-10 10 -132 -19 -152 -37 -11 -9 -33 -19 -50 -21 -20 -2 -31 -10 -35 -25 -3
-12 -18 -36 -33 -53 -29 -32 -52 -36 -99 -16 -11 5 -18 2 -22 -12 -13 -40
-131 -55 -173 -22 -29 23 -54 25 -71 8 -18 -18 -15 -39 9 -65 18 -18 20 -25 9
-38 -7 -8 -19 -15 -28 -15 -8 0 -37 -13 -64 -30 -57 -35 -69 -37 -93 -10 -25
28 -46 25 -80 -10 -16 -16 -32 -30 -37 -30 -4 0 -14 14 -23 30 -27 52 -67 35
-99 -44 -9 -21 -16 -40 -16 -42 0 -1 17 -4 38 -6 l37 -3 3 -61 c3 -69 -11 -94
-54 -94 -17 0 -24 -6 -24 -19 0 -25 -16 -36 -55 -37 -86 -4 -172 -18 -188 -32
-11 -9 -40 -16 -76 -17 -33 -1 -67 -7 -75 -15 -18 -14 -21 -46 -6 -55 20 -12
10 -35 -14 -35 -14 0 -37 -5 -53 -11 -15 -6 -57 -12 -93 -15 -54 -3 -69 -8
-87 -29 -26 -29 -43 -84 -43 -139 0 -38 0 -38 -33 -32 -42 8 -51 -1 -32 -30
16 -25 12 -49 -11 -58 -20 -8 -132 19 -152 37 -37 31 -63 28 -101 -12 -20 -21
-43 -49 -52 -62 -9 -14 -33 -33 -52 -44 -34 -18 -37 -18 -55 -2 -39 36 -51 23
-54 -60 -3 -72 -5 -78 -25 -81 -33 -5 -53 -40 -53 -95 0 -56 14 -66 59 -43 62
33 107 9 96 -51 -8 -42 10 -51 63 -30 20 8 51 13 67 11 17 -3 71 -9 120 -13
108 -10 128 -17 122 -43 -3 -10 1 -31 9 -46 8 -15 14 -33 14 -39 0 -18 17 -16
48 6 31 23 121 41 203 41 55 0 81 11 59 25 -5 3 -10 15 -10 27 0 19 4 20 69
14 60 -6 76 -4 111 14 22 11 44 28 47 36 5 12 15 15 43 10 51 -8 77 18 58 58
-10 23 -9 29 2 36 8 5 18 6 23 3 12 -7 93 25 107 43 7 7 25 14 41 14 15 0 30
4 34 9 3 5 31 15 63 22 39 8 64 20 78 38 20 24 24 25 48 12 23 -13 28 -12 45
3 20 18 20 18 -1 46 -32 43 3 71 43 34 15 -14 21 -14 46 -2 17 8 29 23 31 38
7 44 20 52 79 44 43 -5 54 -3 59 10 3 9 0 23 -7 32 -24 29 11 48 90 48 56 1
74 5 93 22 13 11 51 31 85 43 34 13 69 31 78 41 11 12 32 17 76 18 68 1 93 15
86 49 -4 23 7 31 18 13 11 -18 49 -10 76 16 23 22 26 31 19 50 -13 33 12 44
99 44 61 0 77 4 121 31 27 17 50 37 50 45 0 18 37 36 60 29 10 -3 22 -15 25
-25 7 -23 -11 -60 -30 -60 -7 0 -32 -21 -54 -47 -23 -25 -50 -47 -61 -48 -27
-2 -120 -83 -120 -105 0 -10 -18 -41 -39 -70 -37 -49 -39 -54 -34 -110 5 -49
3 -60 -16 -79 -23 -23 -79 -29 -98 -10 -6 6 -28 9 -49 7 -39 -3 -39 -3 -38
-44 0 -31 11 -57 38 -98 34 -51 41 -86 18 -86 -5 0 -19 12 -31 26 -29 34 -63
26 -112 -24 -77 -78 -86 -84 -121 -77 -42 8 -65 -9 -82 -60 -17 -47 -15 -51
24 -59 39 -7 45 -24 26 -70 -18 -43 -40 -46 -59 -10 l-14 27 -6 -30 c-5 -26
-11 -30 -66 -41 -74 -15 -80 -25 -83 -127 -1 -42 -6 -79 -11 -82 -5 -3 -20 1
-33 8 -21 11 -27 10 -41 -4 -14 -14 -15 -21 -4 -43 15 -33 -2 -58 -34 -50 -25
6 -97 -65 -105 -104 -3 -16 -16 -30 -37 -39 -39 -17 -43 -41 -8 -41 14 0 25
-5 25 -11 0 -7 -9 -9 -24 -5 -15 4 -28 0 -36 -9 -7 -8 -19 -15 -28 -15 -32 0
-104 -43 -115 -69 -6 -14 -20 -37 -31 -51 -12 -14 -17 -22 -12 -18 5 4 17 3
28 -3 16 -9 23 -7 35 10 16 23 42 28 44 9 7 -72 -74 -206 -110 -184 -5 4 -28
4 -50 0 -35 -6 -41 -10 -41 -30 0 -42 -30 -104 -51 -104 -27 0 -37 -30 -16
-45 23 -17 21 -21 -13 -33 -20 -8 -38 -7 -59 1 -24 9 -34 8 -43 -2 -11 -10 -9
-15 6 -26 10 -8 24 -16 30 -18 8 -3 8 -10 0 -23 -15 -25 -61 -30 -85 -8 -28
25 -84 8 -84 -26 0 -22 4 -25 33 -22 27 3 32 0 32 -19 0 -19 -4 -21 -30 -16
-23 5 -40 -1 -76 -25 -54 -36 -71 -66 -55 -96 18 -33 13 -42 -22 -42 -27 0
-39 -8 -65 -42 -18 -23 -32 -45 -32 -50 0 -14 66 -36 93 -31 22 4 29 0 44 -31
15 -33 16 -41 3 -79 -21 -58 -33 -55 -60 19 -11 30 -45 54 -75 54 -18 0 -20
-52 -3 -83 19 -37 27 -97 12 -97 -28 0 -46 14 -65 51 -15 31 -25 39 -47 39
-15 0 -37 -7 -49 -15 -23 -16 -53 -93 -53 -135 0 -15 -7 -49 -15 -75 -13 -46
-13 -51 5 -81 26 -41 26 -80 0 -94 -30 -16 -24 -30 10 -24 27 6 31 3 47 -32 9
-22 19 -55 22 -74 5 -29 11 -36 33 -38 21 -3 30 3 43 27 16 32 46 45 86 39 22
-3 24 -8 27 -71 2 -37 -2 -83 -7 -103 -9 -33 -8 -39 19 -65 34 -35 70 -37 110
-7 29 21 30 21 70 3 40 -18 83 -22 120 -10 12 4 26 2 33 -3 7 -6 31 -15 53
-21 23 -6 59 -25 80 -42 33 -26 45 -30 81 -26 27 3 46 0 53 -8 5 -6 28 -17 50
-24 34 -10 50 -9 98 4 31 9 63 26 70 37 11 15 21 18 47 14 19 -4 46 0 68 9
l37 15 0 75 c0 83 14 103 50 70 25 -23 43 -10 35 25 -23 106 -6 154 39 111
l24 -23 41 26 c23 15 41 29 41 32 0 3 -13 10 -30 15 -77 27 5 55 109 37 43 -8
57 -7 69 5 22 23 5 40 -34 32 -30 -5 -34 -3 -34 15 0 16 6 20 30 20 40 0 80
20 80 40 0 38 51 55 83 29 14 -10 32 -19 41 -19 28 0 64 22 74 45 15 32 -3 92
-29 100 -26 9 -19 28 14 39 19 7 38 6 60 -2 45 -16 81 -15 125 4 l37 16 -32
14 c-18 8 -33 18 -33 23 0 11 25 21 55 21 54 0 129 23 150 46 23 25 59 32 71
13 3 -6 1 -16 -5 -22 -18 -18 -14 -24 33 -57 52 -35 86 -39 86 -11 0 11 5 23
10 26 27 17 61 109 63 168 l2 62 107 1 c58 1 119 5 135 10 15 5 62 9 103 10
94 2 155 9 191 24 22 10 43 8 100 -5 71 -16 73 -16 100 4 56 41 123 39 139 -4
7 -18 17 -25 35 -25 22 0 25 3 20 20 -5 17 0 23 29 35 66 28 116 11 101 -34
-4 -15 -1 -20 17 -23 50 -7 77 3 80 30 5 40 46 57 93 38 38 -16 45 -39 18 -55
-14 -8 -15 -11 -3 -11 8 0 49 -3 90 -7 41 -4 100 -6 130 -5 73 1 290 10 313
12 10 1 32 -6 49 -14 17 -9 41 -16 52 -16 12 0 32 -7 45 -16 15 -11 58 -20
120 -25 53 -5 119 -13 146 -18 106 -21 132 -23 155 -11 20 11 25 10 41 -11 10
-13 26 -25 36 -25 137 -10 261 -30 278 -45 35 -30 60 -32 91 -6 56 47 70 50
120 28 37 -17 45 -25 42 -43 -3 -20 2 -23 27 -23 23 0 31 5 33 22 6 41 65 41
110 -1 22 -19 36 -21 195 -24 295 -5 341 -7 379 -22 31 -11 43 -11 76 -1 23 8
55 11 74 7 112 -21 192 -27 215 -17 34 16 78 14 93 -5 24 -28 44 -32 120 -24
55 5 82 3 102 -7 33 -16 70 -17 85 -2 12 12 195 30 234 22 15 -3 47 4 75 15
38 16 82 22 199 27 83 3 170 11 195 17 25 5 64 12 88 14 24 2 54 11 66 19 18
12 30 13 50 5 43 -16 76 -12 151 20 43 19 87 30 116 30 34 0 51 5 65 21 16 18
27 20 84 16 53 -3 76 0 122 19 32 13 64 24 71 24 8 0 36 9 62 21 35 15 58 19
89 15 27 -4 66 0 116 14 41 11 85 20 97 20 12 0 27 9 33 19 7 15 20 19 52 18
30 -1 64 8 110 30 69 34 87 57 69 92 -8 14 -7 22 3 30 11 10 19 6 39 -14 23
-26 25 -26 60 -11 46 19 52 61 12 76 -36 14 -40 34 -21 94 9 29 16 58 16 64 0
19 -42 52 -66 52 -12 0 -29 11 -38 25 -16 24 -20 24 -120 23 -84 -2 -108 1
-130 15 -20 13 -25 23 -21 38 5 16 2 19 -24 19 -20 0 -35 -7 -43 -20 -15 -24
-31 -25 -48 -5 -7 8 -21 15 -31 15 -24 0 -98 46 -106 65 -3 10 -19 15 -44 15
-26 0 -53 9 -79 26 -38 25 -41 26 -65 10 -14 -10 -31 -28 -37 -41 -9 -20 -17
-23 -62 -23 -28 0 -66 -3 -83 -7 -35 -8 -44 4 -18 25 21 18 9 30 -30 30 -19 0
-49 9 -67 20 -42 25 -74 25 -116 0 -19 -12 -41 -20 -50 -19 -32 3 -42 -1 -42
-16 0 -10 10 -15 27 -15 25 0 67 -11 121 -31 15 -6 22 -17 22 -36 0 -45 -13
-57 -52 -49 -25 4 -48 0 -79 -13 -31 -14 -56 -18 -89 -14 -25 3 -72 0 -104 -7
-83 -17 -138 -14 -184 9 -23 12 -49 21 -58 21 -9 0 -53 -17 -98 -37 -78 -36
-86 -38 -193 -39 -88 -1 -117 -4 -135 -18 -13 -9 -38 -28 -57 -41 -24 -18 -40
-23 -55 -18 -12 4 -39 7 -61 5 -22 -1 -96 -3 -164 -5 -88 -1 -126 -6 -128 -14
-3 -7 -13 -23 -23 -35 -18 -23 -20 -23 -278 -23 -265 0 -282 3 -198 35 33 12
33 23 -1 50 -33 26 -63 23 -138 -11 -27 -12 -66 -23 -86 -24 -20 -1 -48 -11
-64 -23 -44 -35 -99 -28 -106 13 -5 26 -49 32 -197 27 l-114 -4 5 -24 c9 -49
-85 -62 -141 -20 -24 18 -46 24 -90 25 -80 2 -117 9 -194 38 l-67 26 -43 -23
c-55 -29 -89 -28 -132 5 -30 23 -45 26 -103 26 -82 0 -133 20 -133 52 -1 12
-7 33 -15 47 -34 60 0 117 64 104 23 -5 31 -2 40 15 17 30 -11 81 -44 81 -29
0 -39 14 -23 32 19 20 43 75 64 144 12 41 25 64 39 70 11 5 22 20 23 34 5 32
20 50 43 50 11 0 25 13 35 31 16 32 29 30 36 -6 2 -12 11 -20 23 -20 18 0 20
7 21 71 0 66 3 74 36 115 20 24 39 55 43 69 8 27 53 71 98 96 26 14 28 19 22
53 -5 30 -2 41 15 56 20 18 21 18 50 -10 36 -35 48 -27 52 34 3 42 6 46 53 71
60 32 72 67 31 94 -32 20 -37 80 -8 93 25 12 63 9 94 -7 42 -20 56 -2 55 71 0
33 4 64 9 69 5 5 34 13 64 17 l55 8 8 50 c11 74 13 78 37 65 16 -8 25 -7 45 7
33 24 38 40 20 67 -18 27 -9 39 39 50 22 5 34 2 53 -16 l25 -23 19 24 c18 22
19 25 3 42 -21 24 -13 33 29 33 29 1 32 4 32 31 0 21 12 45 37 74 32 38 42 43
80 45 l43 1 -3 38 c-2 32 1 39 23 47 15 6 25 17 25 29 0 32 27 47 62 33 42
-15 93 6 102 42 7 29 31 34 56 11 14 -13 19 -11 48 16 19 18 32 40 32 54 0 27
28 40 66 31 27 -7 64 8 64 27 0 12 11 20 76 51 40 19 177 160 184 189 5 19 13
22 54 22 41 0 52 4 77 33 31 34 48 39 78 20 26 -16 79 7 87 38 7 28 -2 58 -15
50 -5 -4 -16 -3 -25 0 -24 9 -20 59 7 90 29 33 67 28 85 -11 25 -54 92 -16
106 60 5 26 14 39 34 47 22 9 24 12 9 15 -26 7 -16 36 13 39 14 2 44 7 68 10
36 5 47 3 68 -16 31 -30 58 -19 89 35 16 29 32 44 60 53 21 7 55 28 77 47 43
39 83 45 132 20 39 -21 53 -19 90 11 17 14 47 36 66 48 31 20 35 27 33 63 -2
57 20 63 62 18 l32 -36 27 31 c33 39 40 67 41 152 0 65 -1 68 -39 107 -55 56
-89 62 -130 22 -18 -17 -39 -31 -48 -31 -23 0 -39 23 -28 40 16 24 11 66 -8
83 -24 22 -53 21 -90 0 -30 -17 -31 -17 -58 10 -15 15 -39 30 -53 32 -14 3
-48 10 -74 16 -42 10 -58 8 -118 -11 -40 -13 -68 -28 -66 -34 8 -20 -13 -46
-38 -46 -20 0 -24 6 -27 33 l-3 32 -60 0 c-53 0 -61 -3 -72 -25 -24 -48 -42
-53 -80 -20 -47 42 -101 42 -137 0 -19 -23 -24 -38 -20 -58 7 -34 -23 -65 -58
-60 -18 2 -25 13 -34 48 -6 25 -15 55 -19 67 -7 22 -7 22 -31 -6 -33 -39 -32
-85 3 -117 l26 -24 -18 -40 c-12 -27 -30 -46 -54 -57 -29 -14 -37 -25 -39 -50
-2 -17 -10 -37 -17 -43 -23 -19 -61 -4 -75 29 -9 23 -20 31 -51 36 -49 8 -59
2 -59 -40 0 -30 5 -37 36 -50 39 -16 41 -38 6 -43 -14 -2 -34 8 -54 29 -57 56
-145 50 -161 -12 -3 -13 5 -27 25 -44 44 -37 28 -48 -58 -40 -84 8 -124 -3
-139 -38 -17 -38 -53 -42 -123 -15 l-61 25 -16 -23 c-8 -13 -30 -31 -48 -40
-17 -9 -47 -30 -65 -45 -40 -36 -55 -36 -76 -4 -19 29 -30 31 -71 9 -16 -9
-61 -22 -100 -28 -68 -11 -70 -12 -73 -41 -1 -16 -5 -40 -8 -53 l-5 -23 -29
25 c-42 35 -96 51 -117 35 -13 -12 -11 -17 23 -45 35 -30 37 -35 28 -61 -13
-37 -35 -39 -82 -8 -22 14 -46 23 -55 19 -16 -6 -77 -125 -77 -150 0 -12 29
-34 44 -34 3 0 6 8 6 19 0 25 17 37 64 44 36 6 42 3 78 -34 43 -44 44 -64 4
-79 -14 -5 -29 -17 -35 -27 -6 -12 -30 -23 -68 -30 -123 -25 -121 -25 -149 7
-15 16 -40 32 -56 35 -38 9 -78 -17 -78 -50 0 -31 31 -45 95 -45 37 0 44 -3
49 -25 4 -14 13 -25 21 -25 16 0 55 -69 55 -98 0 -49 -58 -52 -79 -5 -10 22
-14 24 -22 12 -12 -20 -11 -53 2 -66 17 -17 3 -43 -23 -43 -44 0 -65 12 -79
43 -21 48 -52 47 -83 -2 -14 -21 -34 -42 -44 -45 -14 -5 -18 -13 -15 -30 4
-20 -1 -26 -31 -36 -32 -10 -42 -8 -96 16 l-62 27 -21 -25 c-32 -36 -72 -58
-106 -58 -65 0 -132 -110 -73 -118 39 -6 47 -42 23 -106 -36 -97 -76 -141
-106 -116 -11 9 -11 19 1 63 20 77 18 114 -6 122 -13 4 -31 0 -45 -9 -20 -13
-25 -25 -25 -60 0 -46 -29 -96 -55 -96 -8 0 -26 -16 -41 -35 -15 -20 -35 -35
-47 -35 -11 0 -39 -17 -61 -37 -23 -21 -55 -47 -71 -59 -27 -19 -28 -22 -16
-52 19 -47 49 -51 83 -13 34 38 45 39 61 4 6 -16 18 -34 25 -42 7 -7 12 -25
10 -40 -3 -22 -8 -26 -35 -25 -28 2 -33 -2 -48 -43 -11 -28 -29 -52 -48 -63
-36 -22 -47 -18 -47 16 0 36 -27 94 -44 94 -45 0 -67 -108 -26 -130 26 -14 26
-36 -1 -51 -17 -9 -25 -7 -42 9 -12 11 -32 25 -45 31 -30 16 -60 -2 -92 -55
-23 -36 -23 -37 -4 -72 15 -28 16 -36 5 -40 -30 -10 -52 -43 -49 -75 3 -31 5
-32 49 -32 25 0 53 -6 62 -14 15 -12 15 -15 -4 -42 -13 -18 -29 -29 -44 -29
-15 0 -33 -12 -50 -34 -29 -38 -64 -49 -107 -34 -24 9 -32 6 -57 -19 -16 -15
-41 -37 -57 -49 -36 -28 -28 -66 18 -84 54 -19 61 -25 71 -54 6 -18 5 -37 -3
-57 -14 -32 -31 -37 -50 -14 -10 12 -16 13 -26 4 -8 -6 -14 -18 -14 -25 0 -7
-18 -23 -41 -34 -26 -14 -44 -32 -50 -50 -6 -15 -26 -39 -45 -52 -31 -21 -64
-79 -64 -113 0 -8 12 -17 28 -21 58 -13 61 -15 68 -52 4 -20 13 -45 21 -54 9
-10 13 -24 9 -33 -7 -19 -26 -11 -26 11 0 25 -35 11 -38 -14 -3 -17 2 -25 17
-29 24 -6 26 -15 11 -44 -15 -27 -60 -24 -101 6 -70 51 -76 52 -112 17 -32
-31 -70 -42 -81 -23 -3 5 -19 13 -34 19 -22 8 -38 5 -71 -10 -51 -23 -97 -25
-171 -5 -64 16 -185 6 -235 -20 -16 -9 -42 -22 -56 -30 -15 -7 -57 -17 -95
-22 -83 -11 -124 -26 -124 -45 0 -23 -27 -38 -88 -50 -43 -9 -59 -17 -67 -34
-5 -12 -15 -22 -20 -22 -20 0 -78 68 -77 92 0 31 37 92 68 112 13 9 24 26 24
37 0 29 18 59 36 59 8 0 24 16 35 35 11 19 29 37 39 40 11 3 29 19 40 36 12
16 30 29 41 29 11 0 30 11 42 24 16 18 30 23 49 19 37 -7 55 27 33 61 -11 17
-14 35 -9 65 6 36 13 46 59 76 29 19 59 35 68 35 25 0 46 39 53 101 5 44 11
58 25 62 14 4 19 14 19 41 0 37 19 56 57 56 20 1 86 58 103 90 7 13 21 20 40
20 35 0 41 16 42 105 0 69 12 84 29 35 13 -36 19 -37 46 -7 30 33 45 65 33 72
-20 12 -9 30 30 53 21 12 45 22 53 22 7 0 24 11 37 25 24 25 24 26 6 57 -18
29 -18 32 -2 43 9 7 26 11 36 8 16 -4 20 0 20 19 0 14 19 50 43 81 56 74 93
136 89 152 -1 7 5 18 14 26 14 11 21 11 46 -4 16 -9 35 -17 42 -17 19 0 46 34
46 57 0 12 21 45 46 75 25 29 51 64 57 78 17 36 87 104 124 119 22 9 34 22 38
43 4 18 16 33 31 38 17 7 24 17 24 35 0 38 28 43 55 9 l23 -28 30 50 c30 49
52 66 100 79 13 4 27 18 32 31 8 21 13 23 30 14 38 -20 111 38 96 76 -7 19 37
64 63 64 34 0 91 58 91 91 0 37 22 47 55 25 32 -21 40 -20 65 6 29 31 27 85
-6 114 -31 29 -24 46 31 74 51 26 74 25 85 -2 8 -20 9 -21 9 -4 1 11 16 33 34
51 17 17 37 39 43 50 10 17 15 18 33 8 32 -20 48 -16 90 22 21 19 48 35 60 35
12 0 33 7 46 16 14 9 34 14 45 11 22 -6 100 11 114 24 6 5 19 9 31 9 22 0 71
36 113 82 29 32 83 52 117 44 32 -8 75 9 107 45 15 17 37 29 51 29 35 0 90 21
104 39 9 13 14 14 24 4 23 -23 74 -15 114 17 21 17 46 30 55 30 10 0 23 7 30
15 7 8 21 15 32 15 11 0 34 11 52 25 182 148 190 159 167 219 -10 28 -9 33 14
53 30 26 31 33 7 33 -17 0 -74 51 -139 125 -19 21 -31 25 -78 25 -42 0 -65 6
-95 25 -22 14 -51 25 -64 25 -14 0 -48 14 -76 32 -34 21 -63 32 -86 31 -19 -1
-37 3 -40 8 -3 5 -33 9 -67 9 -39 1 -69 6 -81 15 -26 19 -80 19 -96 0 -25 -30
-90 -5 -90 33 0 7 -17 12 -43 12 -42 0 -43 0 -55 -45z m168 -75 c36 -4 79 -12
95 -18 17 -6 72 -13 122 -16 84 -4 98 -8 151 -40 31 -20 67 -36 79 -36 12 0
50 -19 85 -43 73 -50 111 -106 103 -151 -7 -42 -50 -93 -95 -116 -22 -11 -47
-33 -57 -48 -36 -59 -65 -82 -103 -82 -29 0 -44 -8 -75 -40 -32 -33 -46 -40
-78 -40 -29 0 -49 -8 -81 -35 -39 -32 -47 -34 -88 -29 -57 8 -107 -8 -143 -46
-18 -19 -39 -30 -56 -30 -15 0 -51 -16 -80 -37 -32 -21 -64 -35 -80 -35 -16 1
-43 -11 -71 -32 -35 -27 -54 -35 -84 -34 -49 1 -110 -16 -149 -42 -54 -36 -60
-39 -85 -44 -25 -5 -67 -41 -151 -132 -26 -27 -128 -129 -226 -226 -160 -158
-184 -178 -213 -178 -26 0 -44 -11 -86 -50 -29 -27 -59 -50 -68 -50 -8 0 -25
-14 -38 -31 -52 -70 -84 -98 -106 -92 -29 7 -162 -119 -162 -154 0 -12 -20
-49 -44 -81 -52 -68 -61 -76 -101 -89 -34 -11 -66 -53 -92 -121 -9 -26 -29
-63 -43 -83 -67 -95 -113 -150 -147 -176 -21 -15 -52 -41 -68 -58 -17 -16 -52
-49 -79 -72 -42 -37 -48 -46 -43 -71 4 -18 0 -38 -12 -56 -25 -37 -164 -181
-197 -202 -33 -22 -69 -79 -83 -132 -8 -29 -26 -54 -60 -84 -27 -24 -56 -56
-64 -73 -8 -16 -34 -48 -56 -70 -34 -32 -41 -46 -41 -76 0 -31 -6 -42 -32 -61
-18 -13 -90 -81 -160 -153 -109 -111 -128 -135 -128 -162 0 -17 -5 -54 -12
-81 -9 -42 -8 -61 6 -114 10 -35 29 -78 43 -97 l26 -33 71 7 71 7 116 113
c116 112 163 144 262 175 27 8 95 10 245 5 239 -8 327 -9 397 -4 28 2 68 0 91
-5 35 -7 44 -5 70 17 17 14 39 43 49 64 11 21 39 60 61 86 34 40 44 63 59 128
9 43 21 81 26 85 20 12 47 82 54 139 5 33 16 76 27 96 10 20 22 54 26 77 9 53
89 155 141 182 50 25 91 83 91 129 0 37 37 86 164 215 37 39 72 79 78 91 49
103 76 141 108 157 50 24 60 35 60 68 0 43 34 113 70 143 17 15 35 27 40 27
18 0 40 33 40 59 0 50 30 104 93 169 46 47 68 62 90 62 15 0 49 11 75 24 27
13 76 26 114 30 61 7 72 12 117 52 27 24 57 44 67 44 11 0 46 11 79 24 33 13
68 27 78 30 9 3 17 13 17 23 0 18 24 52 108 153 23 29 42 59 42 67 0 15 17 40
74 108 31 39 101 89 138 100 23 7 91 38 118 54 8 5 40 21 70 36 30 15 64 35
75 45 11 10 32 21 46 25 14 3 61 42 104 85 67 67 88 82 134 95 90 26 224 68
246 76 89 33 108 39 123 39 10 0 38 21 62 46 59 60 170 114 236 114 11 0 41
21 67 46 43 41 51 45 81 40 26 -5 41 0 74 24 36 26 50 30 106 30 59 0 68 3
113 37 46 36 52 38 150 44 57 4 122 14 148 24 69 27 111 11 175 -66 45 -54 50
-65 50 -109 0 -26 3 -56 6 -65 8 -21 -109 -135 -139 -135 -24 0 -98 -21 -112
-31 -18 -13 -99 -39 -123 -39 -25 0 -97 -34 -107 -50 -3 -5 -18 -10 -33 -10
-61 -1 -123 -26 -165 -67 -23 -22 -71 -54 -107 -71 -67 -32 -71 -37 -124 -151
-12 -28 -67 -64 -171 -114 -38 -18 -76 -41 -84 -50 -7 -9 -25 -17 -39 -17 -19
0 -57 -31 -151 -123 -123 -120 -138 -130 -281 -197 -25 -12 -56 -27 -70 -35
-14 -8 -32 -15 -42 -15 -14 0 -54 -36 -155 -142 -36 -37 -113 -88 -134 -88
-43 0 -209 -145 -209 -182 0 -17 -258 -270 -306 -301 -63 -39 -142 -154 -158
-229 -4 -15 -23 -40 -43 -55 -39 -30 -52 -43 -137 -138 -54 -61 -96 -139 -96
-180 0 -41 -28 -91 -72 -129 -163 -141 -200 -196 -200 -290 0 -57 -3 -64 -38
-102 -34 -37 -38 -48 -45 -114 -4 -40 -14 -88 -21 -106 -12 -29 -12 -38 2 -67
22 -47 86 -84 159 -92 33 -4 89 -21 125 -38 68 -32 94 -36 340 -58 112 -10
141 -16 170 -35 35 -24 36 -24 315 -20 159 3 292 9 307 15 19 7 70 7 160 1 73
-5 171 -12 218 -15 47 -4 171 -7 276 -7 185 -1 192 0 240 24 61 31 128 49 219
58 39 4 84 14 102 23 18 9 42 17 53 17 12 0 45 7 73 14 29 8 104 17 167 20 63
2 129 10 145 17 17 7 64 13 105 14 41 1 122 7 180 13 58 7 142 16 188 21 71 7
91 14 135 44 43 29 65 36 127 42 115 11 168 11 260 -4 47 -7 101 -13 122 -12
26 0 51 -9 87 -33 56 -38 130 -53 205 -43 50 7 87 -14 181 -105 66 -63 67 -78
9 -109 -16 -8 -45 -25 -64 -37 -19 -12 -42 -22 -50 -22 -9 0 -36 -19 -60 -43
-72 -68 -111 -92 -155 -94 -89 -3 -204 -21 -235 -37 -18 -9 -43 -16 -55 -16
-13 0 -42 -9 -66 -20 -32 -14 -66 -20 -124 -20 -71 0 -85 -3 -123 -29 -36 -23
-51 -28 -86 -24 -24 3 -60 0 -79 -6 -20 -7 -65 -12 -101 -12 -53 0 -72 -5
-109 -29 -49 -31 -35 -30 -477 -48 -163 -7 -177 -9 -209 -31 -32 -23 -37 -24
-94 -12 -46 10 -69 10 -106 0 -44 -11 -51 -10 -92 14 -44 25 -47 25 -359 33
-173 4 -353 9 -400 10 -47 2 -142 4 -211 6 -120 3 -129 5 -167 32 l-40 28
-149 -4 c-109 -3 -159 -1 -188 9 -29 10 -51 11 -80 5 -60 -15 -216 -14 -241 1
-12 6 -34 21 -50 32 -22 16 -51 21 -138 26 -131 8 -177 18 -231 50 -35 21 -53
24 -140 25 -120 1 -250 11 -326 24 -31 6 -63 8 -72 5 -8 -4 -38 5 -66 19 -41
21 -64 26 -129 26 -44 0 -94 5 -111 11 -25 9 -42 9 -70 -1 -33 -10 -42 -9 -78
10 -39 20 -43 20 -73 5 -22 -11 -66 -17 -148 -20 -72 -2 -131 -10 -152 -19
-27 -11 -60 -13 -140 -9 -81 4 -116 2 -152 -10 -30 -11 -63 -14 -95 -11 -35 4
-62 0 -101 -15 -59 -24 -70 -21 -116 28 -17 17 -33 31 -37 31 -4 0 -58 -52
-120 -115 -107 -110 -114 -115 -154 -115 -22 0 -59 -9 -80 -21 -47 -24 -108
-38 -192 -46 -52 -4 -68 -11 -108 -44 -26 -21 -58 -39 -70 -39 -25 0 -65 -46
-65 -73 0 -25 -42 -67 -88 -91 -24 -11 -80 -40 -125 -63 -45 -23 -94 -44 -108
-47 -16 -3 -37 -21 -52 -45 -15 -22 -51 -58 -80 -80 -64 -47 -107 -96 -107
-121 0 -40 -59 -137 -106 -173 -26 -20 -53 -37 -60 -37 -7 0 -27 12 -44 27
-22 18 -50 29 -89 35 -273 39 -413 66 -467 90 -37 17 -68 69 -74 122 -4 44 -9
52 -41 70 -56 32 -136 95 -143 112 -6 15 18 43 68 77 16 11 26 27 26 43 0 34
44 100 101 153 45 42 48 47 54 110 4 40 16 84 31 113 18 35 24 63 25 114 l1
68 55 57 c45 48 118 95 169 111 5 2 57 53 115 113 89 93 108 119 123 165 43
140 76 190 218 331 37 37 70 80 74 95 13 51 92 146 142 171 22 10 44 32 54 52
23 46 57 81 95 97 18 8 40 25 50 40 80 115 256 297 336 347 33 22 63 68 78
121 6 21 14 46 19 55 4 9 16 36 25 61 9 25 21 54 25 66 5 11 58 73 119 136 77
80 113 125 117 147 4 17 11 34 15 37 5 3 9 15 9 27 0 12 9 36 20 52 24 37 26
72 3 97 -22 24 -44 23 -103 -7 -39 -20 -62 -24 -117 -23 -38 0 -78 -4 -90 -11
-12 -6 -35 -11 -52 -11 -21 0 -44 -13 -83 -48 -63 -57 -129 -102 -148 -102 -7
0 -42 -16 -77 -35 -41 -23 -87 -38 -127 -44 -62 -9 -119 -31 -131 -51 -3 -5
-20 -10 -37 -10 -25 0 -43 -12 -87 -57 -58 -60 -110 -95 -153 -106 -14 -4 -48
-26 -74 -50 -62 -56 -96 -73 -161 -80 -53 -6 -140 -44 -162 -71 -7 -9 -30 -20
-50 -26 -20 -5 -56 -28 -81 -51 -74 -68 -98 -81 -178 -95 -41 -7 -98 -24 -125
-38 -27 -15 -57 -26 -67 -26 -10 0 -34 -7 -55 -16 -33 -13 -39 -14 -60 0 -13
9 -35 31 -50 50 -43 57 -85 66 -160 36 -28 -12 -37 -10 -94 18 -34 17 -89 56
-123 87 -56 53 -59 57 -45 78 8 12 32 28 53 35 21 7 46 20 55 28 8 8 48 18 87
23 39 5 88 18 109 29 21 11 63 25 94 31 55 12 56 12 87 75 23 47 51 81 104
129 88 78 105 87 157 87 37 0 42 3 61 39 28 55 62 79 127 87 30 3 74 17 97 30
24 14 58 24 81 24 22 0 54 9 70 19 41 26 127 112 204 205 64 77 135 126 181
126 44 0 117 32 158 70 36 33 50 40 81 38 21 -1 58 8 83 20 24 12 53 22 63 22
29 0 100 50 125 89 24 37 48 61 61 61 4 0 29 -18 55 -40 62 -51 102 -59 149
-31 20 12 47 21 61 21 27 0 75 22 113 51 13 11 33 19 44 19 11 0 51 29 88 65
38 36 73 65 78 65 5 0 17 17 26 38 45 95 99 97 114 4 7 -43 37 -54 76 -28 17
11 36 14 62 10 36 -5 41 -3 71 35 18 23 56 57 85 76 43 29 61 35 107 35 76 1
204 25 232 44 12 9 30 16 39 16 9 0 38 25 64 55 26 31 58 58 73 61 15 4 32 10
37 15 18 13 99 39 126 39 14 0 49 18 79 40 35 26 64 40 84 40 17 0 68 18 114
40 45 22 92 40 105 40 12 0 40 11 62 25 63 38 75 42 174 55 51 7 108 18 127
26 18 8 55 14 81 14 60 0 118 27 162 74 34 35 37 36 108 36 46 0 92 7 125 19
29 10 76 22 103 25 123 16 133 20 185 69 66 63 110 89 135 81 11 -3 49 -10 85
-14z m1877 -247 c13 -34 -109 -92 -128 -61 -16 24 -9 33 44 54 66 27 76 28 84
7z m-1113 -32 c7 -10 -22 -37 -30 -28 -9 8 3 37 15 37 5 0 12 -4 15 -9z
m-2299 -132 c-4 -5 -13 -9 -22 -9 -13 0 -13 3 -3 15 13 15 35 11 25 -6z m-605
-299 c8 -5 11 -12 8 -16 -10 -9 -38 3 -38 16 0 12 10 13 30 0z m-695 -150 c7
-11 -11 -40 -24 -40 -4 0 -16 7 -27 15 -16 13 -17 16 -4 25 20 13 47 13 55 0z
m3343 -12 c4 -19 -35 -35 -50 -20 -6 6 -8 18 -4 27 8 21 50 16 54 -7z m-1378
-1198 c0 -10 -16 -36 -36 -56 -31 -30 -36 -41 -31 -68 6 -40 -4 -59 -29 -54
-16 3 -19 14 -21 80 -2 61 1 77 13 82 9 3 20 4 25 0 5 -3 21 4 35 15 33 26 44
26 44 1z m950 -284 c0 -20 -26 -40 -35 -26 -10 16 2 40 20 40 8 0 15 -6 15
-14z m-1345 -255 c0 -15 -71 -42 -91 -34 -21 8 -17 39 7 62 20 19 22 19 53 2
17 -10 31 -23 31 -30z m-275 -376 c16 -20 2 -73 -23 -89 -21 -13 -37 5 -37 42
0 52 34 78 60 47z m-178 -377 c10 -8 18 -34 21 -68 3 -30 9 -70 12 -88 7 -33
7 -33 -26 -30 -33 3 -34 5 -37 51 -2 32 -7 47 -17 47 -37 0 -43 84 -7 93 30 8
38 7 54 -5z m-1124 -452 c3 -12 -1 -17 -10 -14 -7 3 -15 13 -16 22 -3 12 1 17
10 14 7 -3 15 -13 16 -22z m-185 -134 c28 -24 21 -42 -17 -42 -45 0 -60 19
-40 48 15 23 24 21 57 -6z m-1775 -214 c15 -15 16 -55 2 -63 -18 -11 -40 15
-40 46 0 30 17 38 38 17z m1572 -308 c0 -5 -7 -10 -15 -10 -8 0 -15 5 -15 10
0 6 7 10 15 10 8 0 15 -4 15 -10z m-1769 -91 c13 -25 4 -82 -16 -99 -26 -21
-45 -4 -45 40 0 71 36 106 61 59z"/>
<path d="M8072 7534 c-12 -8 -22 -24 -22 -34 0 -33 32 -88 54 -94 43 -12 54
-7 58 27 3 17 8 39 12 48 9 21 -30 69 -58 69 -12 0 -32 -7 -44 -16z"/>
<path d="M7900 7456 c0 -15 18 -31 26 -23 7 7 -7 37 -17 37 -5 0 -9 -6 -9 -14z"/>
<path d="M4541 7356 c-22 -26 10 -63 43 -50 35 13 24 64 -14 64 -10 0 -23 -6
-29 -14z"/>
<path d="M7477 7279 c-25 -14 -21 -29 7 -29 30 0 41 14 23 28 -8 7 -18 7 -30
1z"/>
<path d="M2911 6740 c-8 -4 -10 -13 -7 -19 9 -13 43 -15 51 -2 8 14 -28 31
-44 21z"/>
<path d="M6720 6670 c0 -18 36 -38 47 -26 10 10 -5 33 -26 39 -16 4 -21 0 -21
-13z"/>
<path d="M6289 6446 c-13 -6 -28 -24 -33 -39 -8 -23 -6 -31 11 -48 12 -12 26
-18 32 -15 13 8 41 71 41 91 0 19 -24 25 -51 11z"/>
<path d="M2000 6275 c0 -8 9 -15 20 -15 24 0 27 15 4 24 -22 9 -24 8 -24 -9z"/>
<path d="M1471 5996 c-13 -15 -4 -26 21 -26 21 0 24 25 4 33 -8 3 -19 0 -25
-7z"/>
<path d="M880 5589 c-40 -12 -60 -33 -60 -66 0 -17 8 -24 38 -32 21 -6 46 -17
57 -25 11 -9 28 -16 37 -16 25 0 34 61 16 108 -15 41 -32 47 -88 31z"/>
<path d="M817 5423 c-25 -24 11 -103 47 -103 36 0 68 68 46 95 -12 15 -81 21
-93 8z"/>
<path d="M5090 5075 c-6 -8 -9 -19 -6 -24 9 -14 56 8 56 26 0 18 -34 17 -50
-2z"/>
<path d="M6112 4568 c5 -15 28 -18 29 -3 0 6 -7 12 -17 13 -10 3 -15 -1 -12
-10z"/>
<path d="M9716 4401 c-32 -35 9 -57 49 -27 16 12 17 16 6 30 -18 21 -34 20
-55 -3z"/>
<path d="M10184 4328 c-7 -22 16 -48 42 -48 20 0 36 28 29 50 -9 29 -61 28
-71 -2z"/>
<path d="M8753 4174 c-7 -19 13 -34 44 -34 28 0 38 17 23 35 -17 20 -59 19
-67 -1z"/>
<path d="M7852 4034 c-30 -21 -28 -39 8 -54 58 -24 117 22 73 56 -24 18 -54
17 -81 -2z"/>
</g>
</svg>
